<?xml version="1.0" encoding="utf-8"?>
<!-- Generator: Adobe Illustrator 27.1.1, SVG Export Plug-In . SVG Version: 6.00 Build 0)  -->
<svg version="1.1" id="svg3429" xmlns:svg="http://www.w3.org/2000/svg"
	 xmlns="http://www.w3.org/2000/svg" xmlns:xlink="http://www.w3.org/1999/xlink" x="0px" y="0px" viewBox="0 0 964 768"
	 style="enable-background:new 0 0 964 768;" xml:space="preserve">
<style type="text/css">
	.st0{fill:#221815;}
	.st1{fill:#FFFFFF;}
	.st2{fill:#DF2D32;}
</style>
<g id="g74" transform="matrix(1.3333333,0,0,-1.3333333,-1032.5583,987.36784)">
	<g>
		<g id="g76">
			<g id="g82" transform="translate(801.499,688.1885)">
				<path id="path84" class="st0" d="M242.1-452.5l103.6-0.8h106.7c91,41.2,149.7,132.1,149.7,231.7
					c0,140.2-113.9,254.2-253.8,254.2C208.1,32.6,94-81.4,94-221.6C94-320.6,152.1-411.2,242.1-452.5 M453.1-456.7H345.6L241-455.8
					C149.6-414,90.6-322.1,90.6-221.6C90.6-79.5,206.2,36,348.3,36c141.9,0,257.3-115.5,257.3-257.6c0-101-59.7-193.3-152.1-235
					L453.1-456.7z"/>
			</g>
			<g id="g86" transform="translate(791.0244,725.6973)">
				<path id="path88" class="st1" d="M154.8-139.9v35c-8.3-11-15.8-22.7-22.3-35H154.8z"/>
			</g>
			<g id="g90" transform="translate(788.9434,725.8828)">
				<path id="path92" class="st0" d="M137.5-138.3h17.7v28.1C148.7-119.2,142.8-128.6,137.5-138.3 M158.6-141.8h-26.9l1.4,2.5
					c6.6,12.4,14.2,24.3,22.5,35.3l3.1,4.1V-141.8z"/>
			</g>
			<g id="g94" transform="translate(831.9121,732.5713)">
				<path id="path96" class="st1" d="M495.6-82.6v-25.2h22.8C511.3-98.9,503.7-90.5,495.6-82.6"/>
			</g>
			<g id="g98" transform="translate(832.0977,730.061)">
				<path id="path100" class="st0" d="M497.1-103.5h17.4c-5.4,6.7-11.3,13.2-17.4,19.3V-103.5z M521.7-107h-28.1v31l2.9-2.8
					c8.2-7.9,15.9-16.5,22.9-25.3L521.7-107z"/>
			</g>
			<g id="g102" transform="translate(818.2949,739.7944)">
				<path id="path104" class="st1" d="M382.1-22.4v-14.4h24.9v8C398.8-26.2,390.5-24.1,382.1-22.4"/>
			</g>
			<g id="g106" transform="translate(818.4805,738.4419)">
				<path id="path108" class="st0" d="M383.6-33.7H405v5c-7.2,2.2-14.4,4.1-21.4,5.5V-33.7z M408.5-37.1h-28.3v18.2l2.1-0.4
					c8.2-1.6,16.6-3.8,25-6.4l1.2-0.4V-37.1z"/>
			</g>
			<path id="path110" class="st1" d="M996.5,585.8h-24.8v39.3h24.8V585.8z"/>
			<path id="path112" class="st0" d="M973.4,587.5h21.3v35.9h-21.3V587.5z M998.2,584.1H970v42.8h28.2V584.1z"/>
			<path id="path114" class="st1" d="M996.5,546.6h-24.8v39.3h24.8V546.6z"/>
			<path id="path116" class="st0" d="M973.4,548.3h21.3v35.8h-21.3V548.3z M998.2,544.8H970v42.7h28.2V544.8z"/>
			<path id="path118" class="st1" d="M996.5,507.6h-24.8v39.3h24.8V507.6z"/>
			<path id="path120" class="st0" d="M973.4,509.3h21.3v35.9h-21.3V509.3z M998.2,505.8H970v42.8h28.2V505.8z"/>
			<path id="path122" class="st1" d="M996.5,468.3h-24.8v39.3h24.8V468.3z"/>
			<path id="path124" class="st0" d="M973.4,470h21.3v35.8h-21.3V470z M998.2,466.6H970v42.7h28.2V466.6z"/>
			<path id="path126" class="st1" d="M996.5,429.4h-24.8v39.2h24.8V429.4z"/>
			<path id="path128" class="st0" d="M973.4,431.1h21.3v35.8h-21.3V431.1z M998.2,427.7H970v42.7h28.2V427.7z"/>
			<path id="path130" class="st1" d="M996.5,390.1h-24.8v39.3h24.8V390.1z"/>
			<path id="path132" class="st0" d="M973.4,391.8h21.3v35.9h-21.3V391.8z M998.2,388.3H970v42.8h28.2V388.3z"/>
			<path id="path134" class="st1" d="M996.5,351.1h-24.8v39.3h24.8V351.1z"/>
			<path id="path136" class="st0" d="M973.4,352.9h21.3v35.8h-21.3V352.9z M998.2,349.4H970v42.7h28.2V349.4z"/>
			<path id="path138" class="st1" d="M996.5,312.1h-24.8v39.4h24.8V312.1z"/>
			<path id="path140" class="st0" d="M973.4,313.8h21.3v35.9h-21.3V313.8z M998.2,310.4H970v42.9h28.2V310.4z"/>
			<path id="path142" class="st1" d="M971,546.6h-24.7v39.3H971V546.6z"/>
			<path id="path144" class="st0" d="M948,548.3h21.3v35.8H948V548.3z M972.7,544.8h-28.2v42.7h28.2V544.8z"/>
			<path id="path146" class="st1" d="M971,507.6h-24.7v39.3H971V507.6z"/>
			<path id="path148" class="st0" d="M948,509.3h21.3v35.9H948V509.3z M972.7,505.8h-28.2v42.8h28.2V505.8z"/>
			<path id="path150" class="st1" d="M971,468.3h-24.7v39.3H971V468.3z"/>
			<path id="path152" class="st0" d="M948,470h21.3v35.8H948V470z M972.7,466.6h-28.2v42.7h28.2V466.6z"/>
			<path id="path154" class="st1" d="M971,429.4h-24.7v39.2H971V429.4z"/>
			<path id="path156" class="st0" d="M948,431.1h21.3v35.8H948V431.1z M972.7,427.7h-28.2v42.7h28.2V427.7z"/>
			<path id="path158" class="st1" d="M971,390.1h-24.7v39.3H971V390.1z"/>
			<path id="path160" class="st0" d="M948,391.8h21.3v35.9H948V391.8z M972.7,388.3h-28.2v42.8h28.2V388.3z"/>
			<path id="path162" class="st1" d="M971,351.1h-24.7v39.3H971V351.1z"/>
			<path id="path164" class="st0" d="M948,352.9h21.3v35.8H948V352.9z M972.7,349.4h-28.2v42.7h28.2V349.4z"/>
			<path id="path166" class="st1" d="M971,312.1h-24.7v39.4H971V312.1z"/>
			<path id="path168" class="st0" d="M948,313.8h21.3v35.9H948V313.8z M972.7,310.4h-28.2v42.9h28.2V310.4z"/>
			<path id="path170" class="st1" d="M945.8,507.6H921v39.3h24.8V507.6z"/>
			<path id="path172" class="st0" d="M922.7,509.3h21.4v35.9h-21.4V509.3z M947.6,505.8h-28.3v42.8h28.3V505.8z"/>
			<path id="path174" class="st1" d="M945.8,468.3H921v39.3h24.8V468.3z"/>
			<path id="path176" class="st0" d="M922.7,470h21.4v35.8h-21.4V470z M947.6,466.6h-28.3v42.7h28.3V466.6z"/>
			<path id="path178" class="st1" d="M945.8,429.4H921v39.2h24.8V429.4z"/>
			<path id="path180" class="st0" d="M922.7,431.1h21.4v35.8h-21.4V431.1z M947.6,427.7h-28.3v42.7h28.3V427.7z"/>
			<path id="path182" class="st1" d="M945.8,390.1H921v39.3h24.8V390.1z"/>
			<path id="path184" class="st0" d="M922.7,391.8h21.4v35.9h-21.4V391.8z M947.6,388.3h-28.3v42.8h28.3V388.3z"/>
			<path id="path186" class="st1" d="M1022,624.8h-24.7v39.3h24.7V624.8z"/>
			<path id="path188" class="st0" d="M999,626.5h21.3v35.8H999V626.5z M1023.7,623.1h-28.2v42.7h28.2V623.1z"/>
			<path id="path190" class="st1" d="M1022,585.8h-24.7v39.3h24.7V585.8z"/>
			<path id="path192" class="st0" d="M999,587.5h21.3v35.9H999V587.5z M1023.7,584.1h-28.2v42.8h28.2V584.1z"/>
			<path id="path194" class="st1" d="M1022,546.6h-24.7v39.3h24.7V546.6z"/>
			<path id="path196" class="st0" d="M999,548.3h21.3v35.8H999V548.3z M1023.7,544.8h-28.2v42.7h28.2V544.8z"/>
			<path id="path198" class="st1" d="M1022,507.6h-24.7v39.3h24.7V507.6z"/>
			<path id="path200" class="st0" d="M999,509.3h21.3v35.9H999V509.3z M1023.7,505.8h-28.2v42.8h28.2V505.8z"/>
			<path id="path202" class="st1" d="M1022,468.3h-24.7v39.3h24.7V468.3z"/>
			<path id="path204" class="st0" d="M999,470h21.3v35.8H999V470z M1023.7,466.6h-28.2v42.7h28.2V466.6z"/>
			<path id="path206" class="st1" d="M1022,429.4h-24.7v39.2h24.7V429.4z"/>
			<path id="path208" class="st0" d="M999,431.1h21.3v35.8H999V431.1z M1023.7,427.7h-28.2v42.7h28.2V427.7z"/>
			<path id="path210" class="st1" d="M1022,390.1h-24.7v39.3h24.7V390.1z"/>
			<path id="path212" class="st0" d="M999,391.8h21.3v35.9H999V391.8z M1023.7,388.3h-28.2v42.8h28.2V388.3z"/>
			<path id="path214" class="st1" d="M1022,351.1h-24.7v39.3h24.7V351.1z"/>
			<path id="path216" class="st0" d="M999,352.9h21.3v35.8H999V352.9z M1023.7,349.4h-28.2v42.7h28.2V349.4z"/>
			<path id="path218" class="st1" d="M1022,312.1h-24.7v39.4h24.7V312.1z"/>
			<path id="path220" class="st0" d="M999,313.8h21.3v35.9H999V313.8z M1023.7,310.4h-28.2v42.9h28.2V310.4z"/>
			<path id="path222" class="st1" d="M1022,272.9h-24.7v39.3h24.7V272.9z"/>
			<path id="path224" class="st0" d="M999,274.6h21.3v35.8H999V274.6z M1023.7,271.1h-28.2v42.7h28.2V271.1z"/>
			<path id="path226" class="st0" d="M1047.5,624.8h-24.8v39.3h24.8V624.8z"/>
			<path id="path228" class="st0" d="M1024.4,626.5h21.3v35.8h-21.3V626.5z M1049.2,623.1H1021v42.7h28.3V623.1z"/>
			<path id="path230" class="st1" d="M1047.5,585.8h-24.8v39.3h24.8V585.8z"/>
			<path id="path232" class="st0" d="M1024.4,587.5h21.3v35.9h-21.3V587.5z M1049.2,584.1H1021v42.8h28.3V584.1z"/>
			<path id="path234" class="st1" d="M1047.5,546.6h-24.8v39.3h24.8V546.6z"/>
			<path id="path236" class="st0" d="M1024.4,548.3h21.3v35.8h-21.3V548.3z M1049.2,544.8H1021v42.7h28.3V544.8z"/>
			<path id="path238" class="st1" d="M1047.5,507.6h-24.8v39.3h24.8V507.6z"/>
			<path id="path240" class="st0" d="M1024.4,509.3h21.3v35.9h-21.3V509.3z M1049.2,505.8H1021v42.8h28.3V505.8z"/>
			<path id="path242" class="st1" d="M1047.5,468.3h-24.8v39.3h24.8V468.3z"/>
			<path id="path244" class="st0" d="M1024.4,470h21.3v35.8h-21.3V470z M1049.2,466.6H1021v42.7h28.3V466.6z"/>
			<path id="path246" class="st1" d="M1047.5,429.4h-24.8v39.2h24.8V429.4z"/>
			<path id="path248" class="st0" d="M1024.4,431.1h21.3v35.8h-21.3V431.1z M1049.2,427.7H1021v42.7h28.3V427.7z"/>
			<path id="path250" class="st1" d="M1047.5,390.1h-24.8v39.3h24.8V390.1z"/>
			<path id="path252" class="st0" d="M1024.4,391.8h21.3v35.9h-21.3V391.8z M1049.2,388.3H1021v42.8h28.3V388.3z"/>
			<path id="path254" class="st1" d="M1047.5,351.1h-24.8v39.3h24.8V351.1z"/>
			<path id="path256" class="st0" d="M1024.4,352.9h21.3v35.8h-21.3V352.9z M1049.2,349.4H1021v42.7h28.3V349.4z"/>
			<path id="path258" class="st1" d="M1047.5,312.1h-24.8v39.4h24.8V312.1z"/>
			<path id="path260" class="st0" d="M1024.4,313.8h21.3v35.9h-21.3V313.8z M1049.2,310.4H1021v42.9h28.3V310.4z"/>
			<path id="path262" class="st0" d="M1047.5,272.9h-24.8v39.3h24.8V272.9z"/>
			<path id="path264" class="st0" d="M1024.4,274.6h21.3v35.8h-21.3V274.6z M1049.2,271.1H1021v42.7h28.3V271.1z"/>
			<path id="path266" class="st1" d="M1072.6,624.8h-24.8v39.3h24.8V624.8z"/>
			<path id="path268" class="st0" d="M1049.5,626.5h21.3v35.8h-21.3V626.5z M1074.3,623.1h-28.2v42.7h28.2V623.1z"/>
			<path id="path270" class="st0" d="M1072.6,585.8h-24.8v39.3h24.8V585.8z"/>
			<path id="path272" class="st0" d="M1049.5,587.5h21.3v35.9h-21.3V587.5z M1074.3,584.1h-28.2v42.8h28.2V584.1z"/>
			<path id="path274" class="st1" d="M1072.6,546.6h-24.8v39.3h24.8V546.6z"/>
			<path id="path276" class="st0" d="M1049.5,548.3h21.3v35.8h-21.3V548.3z M1074.3,544.8h-28.2v42.7h28.2V544.8z"/>
			<path id="path278" class="st1" d="M1072.6,507.6h-24.8v39.3h24.8V507.6z"/>
			<path id="path280" class="st0" d="M1049.5,509.3h21.3v35.9h-21.3V509.3z M1074.3,505.8h-28.2v42.8h28.2V505.8z"/>
			<path id="path282" class="st1" d="M1072.6,468.3h-24.8v39.3h24.8V468.3z"/>
			<path id="path284" class="st0" d="M1049.5,470h21.3v35.8h-21.3V470z M1074.3,466.6h-28.2v42.7h28.2V466.6z"/>
			<path id="path286" class="st1" d="M1072.6,429.4h-24.8v39.2h24.8V429.4z"/>
			<path id="path288" class="st0" d="M1049.5,431.1h21.3v35.8h-21.3V431.1z M1074.3,427.7h-28.2v42.7h28.2V427.7z"/>
			<path id="path290" class="st1" d="M1072.6,390.1h-24.8v39.3h24.8V390.1z"/>
			<path id="path292" class="st0" d="M1049.5,391.8h21.3v35.9h-21.3V391.8z M1074.3,388.3h-28.2v42.8h28.2V388.3z"/>
			<path id="path294" class="st1" d="M1072.6,351.1h-24.8v39.3h24.8V351.1z"/>
			<path id="path296" class="st0" d="M1049.5,352.9h21.3v35.8h-21.3V352.9z M1074.3,349.4h-28.2v42.7h28.2V349.4z"/>
			<path id="path298" class="st0" d="M1072.6,312.1h-24.8v39.4h24.8V312.1z"/>
			<path id="path300" class="st0" d="M1049.5,313.8h21.3v35.9h-21.3V313.8z M1074.3,310.4h-28.2v42.9h28.2V310.4z"/>
			<path id="path302" class="st1" d="M1072.6,272.9h-24.8v39.3h24.8V272.9z"/>
			<path id="path304" class="st0" d="M1049.5,274.6h21.3v35.8h-21.3V274.6z M1074.3,271.1h-28.2v42.7h28.2V271.1z"/>
			<path id="path306" class="st0" d="M1072.6,234h-24.8v39.3h24.8V234z"/>
			<path id="path308" class="st0" d="M1049.5,235.7h21.3v35.8h-21.3V235.7z M1074.3,232.3h-28.2V275h28.2V232.3z"/>
			<path id="path310" class="st1" d="M1098.1,624.8h-24.8v39.3h24.8V624.8z"/>
			<path id="path312" class="st0" d="M1075,626.5h21.4v35.8H1075V626.5z M1099.8,623.1h-28.3v42.7h28.3V623.1z"/>
			<path id="path314" class="st1" d="M1098.1,664.1h-24.8v39.3h24.8V664.1z"/>
			<path id="path316" class="st0" d="M1075,665.8h21.4v35.8H1075V665.8z M1099.8,662.3h-28.3v42.8h28.3V662.3z"/>
			<path id="path318" class="st1" d="M1098.1,585.8h-24.8v39.3h24.8V585.8z"/>
			<path id="path320" class="st0" d="M1075,587.5h21.4v35.9H1075V587.5z M1099.8,584.1h-28.3v42.8h28.3V584.1z"/>
			<path id="path322" class="st1" d="M1098.1,546.6h-24.8v39.3h24.8V546.6z"/>
			<path id="path324" class="st0" d="M1075,548.3h21.4v35.8H1075V548.3z M1099.8,544.8h-28.3v42.7h28.3V544.8z"/>
			<path id="path326" class="st1" d="M1098.1,507.6h-24.8v39.3h24.8V507.6z"/>
			<path id="path328" class="st0" d="M1075,509.3h21.4v35.9H1075V509.3z M1099.8,505.8h-28.3v42.8h28.3V505.8z"/>
			<path id="path330" class="st1" d="M1098.1,468.3h-24.8v39.3h24.8V468.3z"/>
			<path id="path332" class="st0" d="M1075,470h21.4v35.8H1075V470z M1099.8,466.6h-28.3v42.7h28.3V466.6z"/>
			<path id="path334" class="st1" d="M1098.1,429.4h-24.8v39.2h24.8V429.4z"/>
			<path id="path336" class="st0" d="M1075,431.1h21.4v35.8H1075V431.1z M1099.8,427.7h-28.3v42.7h28.3V427.7z"/>
			<path id="path338" class="st1" d="M1098.1,390.1h-24.8v39.3h24.8V390.1z"/>
			<path id="path340" class="st0" d="M1075,391.8h21.4v35.9H1075V391.8z M1099.8,388.3h-28.3v42.8h28.3V388.3z"/>
			<path id="path342" class="st1" d="M1098.1,351.1h-24.8v39.3h24.8V351.1z"/>
			<path id="path344" class="st0" d="M1075,352.9h21.4v35.8H1075V352.9z M1099.8,349.4h-28.3v42.7h28.3V349.4z"/>
			<path id="path346" class="st1" d="M1098.1,312.1h-24.8v39.4h24.8V312.1z"/>
			<path id="path348" class="st0" d="M1075,313.8h21.4v35.9H1075V313.8z M1099.8,310.4h-28.3v42.9h28.3V310.4z"/>
			<path id="path350" class="st0" d="M1098.1,272.9h-24.8v39.3h24.8V272.9z"/>
			<path id="path352" class="st0" d="M1075,274.6h21.4v35.8H1075V274.6z M1099.8,271.1h-28.3v42.7h28.3V271.1z"/>
			<path id="path354" class="st1" d="M1098.1,234h-24.8v39.3h24.8V234z"/>
			<path id="path356" class="st0" d="M1075,235.7h21.4v35.8H1075V235.7z M1099.8,232.3h-28.3V275h28.3V232.3z"/>
			<path id="path358" class="st1" d="M1123.6,624.8h-24.8v39.3h24.8V624.8z"/>
			<path id="path360" class="st0" d="M1100.5,626.5h21.3v35.8h-21.3V626.5z M1125.3,623.1h-28.2v42.7h28.2V623.1z"/>
			<path id="path362" class="st1" d="M1123.6,664.1h-24.8v39.3h24.8V664.1z"/>
			<path id="path364" class="st0" d="M1100.5,665.8h21.3v35.8h-21.3V665.8z M1125.3,662.3h-28.2v42.8h28.2V662.3z"/>
			<path id="path366" class="st1" d="M1123.6,585.8h-24.8v39.3h24.8V585.8z"/>
			<path id="path368" class="st0" d="M1100.5,587.5h21.3v35.9h-21.3V587.5z M1125.3,584.1h-28.2v42.8h28.2V584.1z"/>
			<path id="path370" class="st1" d="M1123.6,546.6h-24.8v39.3h24.8V546.6z"/>
			<path id="path372" class="st0" d="M1100.5,548.3h21.3v35.8h-21.3V548.3z M1125.3,544.8h-28.2v42.7h28.2V544.8z"/>
			<path id="path374" class="st1" d="M1123.6,507.6h-24.8v39.3h24.8V507.6z"/>
			<path id="path376" class="st0" d="M1100.5,509.3h21.3v35.9h-21.3V509.3z M1125.3,505.8h-28.2v42.8h28.2V505.8z"/>
			<path id="path378" class="st1" d="M1123.6,468.3h-24.8v39.3h24.8V468.3z"/>
			<path id="path380" class="st0" d="M1100.5,470h21.3v35.8h-21.3V470z M1125.3,466.6h-28.2v42.7h28.2V466.6z"/>
			<path id="path382" class="st1" d="M1123.6,429.4h-24.8v39.2h24.8V429.4z"/>
			<path id="path384" class="st0" d="M1100.5,431.1h21.3v35.8h-21.3V431.1z M1125.3,427.7h-28.2v42.7h28.2V427.7z"/>
			<path id="path386" class="st1" d="M1123.6,390.1h-24.8v39.3h24.8V390.1z"/>
			<path id="path388" class="st0" d="M1100.5,391.8h21.3v35.9h-21.3V391.8z M1125.3,388.3h-28.2v42.8h28.2V388.3z"/>
			<path id="path390" class="st1" d="M1123.6,351.1h-24.8v39.3h24.8V351.1z"/>
			<path id="path392" class="st0" d="M1100.5,352.9h21.3v35.8h-21.3V352.9z M1125.3,349.4h-28.2v42.7h28.2V349.4z"/>
			<path id="path394" class="st1" d="M1123.6,312.1h-24.8v39.4h24.8V312.1z"/>
			<path id="path396" class="st0" d="M1100.5,313.8h21.3v35.9h-21.3V313.8z M1125.3,310.4h-28.2v42.9h28.2V310.4z"/>
			<path id="path398" class="st1" d="M1123.6,272.9h-24.8v39.3h24.8V272.9z"/>
			<path id="path400" class="st0" d="M1100.5,274.6h21.3v35.8h-21.3V274.6z M1125.3,271.1h-28.2v42.7h28.2V271.1z"/>
			<path id="path402" class="st1" d="M1123.6,234h-24.8v39.3h24.8V234z"/>
			<path id="path404" class="st0" d="M1100.5,235.7h21.3v35.8h-21.3V235.7z M1125.3,232.3h-28.2V275h28.2V232.3z"/>
			<path id="path406" class="st1" d="M1149.1,624.8h-24.8v39.3h24.8V624.8z"/>
			<path id="path408" class="st0" d="M1126,626.5h21.3v35.8H1126V626.5z M1150.8,623.1h-28.2v42.7h28.2V623.1z"/>
			<path id="path410" class="st0" d="M1149.1,664.1h-24.8v39.3h24.8V664.1z"/>
			<path id="path412" class="st0" d="M1126,665.8h21.3v35.8H1126V665.8z M1150.8,662.3h-28.2v42.8h28.2V662.3z"/>
			<path id="path414" class="st1" d="M1149.1,585.8h-24.8v39.3h24.8V585.8z"/>
			<path id="path416" class="st0" d="M1126,587.5h21.3v35.9H1126V587.5z M1150.8,584.1h-28.2v42.8h28.2V584.1z"/>
			<path id="path418" class="st1" d="M1149.1,546.6h-24.8v39.3h24.8V546.6z"/>
			<path id="path420" class="st0" d="M1126,548.3h21.3v35.8H1126V548.3z M1150.8,544.8h-28.2v42.7h28.2V544.8z"/>
			<path id="path422" class="st1" d="M1149.1,507.6h-24.8v39.3h24.8V507.6z"/>
			<path id="path424" class="st0" d="M1126,509.3h21.3v35.9H1126V509.3z M1150.8,505.8h-28.2v42.8h28.2V505.8z"/>
			<path id="path426" class="st1" d="M1149.1,468.3h-24.8v39.3h24.8V468.3z"/>
			<path id="path428" class="st0" d="M1126,470h21.3v35.8H1126V470z M1150.8,466.6h-28.2v42.7h28.2V466.6z"/>
			<path id="path430" class="st1" d="M1149.1,429.4h-24.8v39.2h24.8V429.4z"/>
			<path id="path432" class="st0" d="M1126,431.1h21.3v35.8H1126V431.1z M1150.8,427.7h-28.2v42.7h28.2V427.7z"/>
			<path id="path434" class="st1" d="M1149.1,390.1h-24.8v39.3h24.8V390.1z"/>
			<path id="path436" class="st0" d="M1126,391.8h21.3v35.9H1126V391.8z M1150.8,388.3h-28.2v42.8h28.2V388.3z"/>
			<path id="path438" class="st1" d="M1149.1,351.1h-24.8v39.3h24.8V351.1z"/>
			<path id="path440" class="st0" d="M1126,352.9h21.3v35.8H1126V352.9z M1150.8,349.4h-28.2v42.7h28.2V349.4z"/>
			<path id="path442" class="st1" d="M1149.1,312.1h-24.8v39.4h24.8V312.1z"/>
			<path id="path444" class="st0" d="M1126,313.8h21.3v35.9H1126V313.8z M1150.8,310.4h-28.2v42.9h28.2V310.4z"/>
			<path id="path446" class="st1" d="M1149.1,272.9h-24.8v39.3h24.8V272.9z"/>
			<path id="path448" class="st0" d="M1126,274.6h21.3v35.8H1126V274.6z M1150.8,271.1h-28.2v42.7h28.2V271.1z"/>
			<path id="path450" class="st1" d="M1149.1,234h-24.8v39.3h24.8V234z"/>
			<path id="path452" class="st0" d="M1126,235.7h21.3v35.8H1126V235.7z M1150.8,232.3h-28.2V275h28.2V232.3z"/>
			<path id="path454" class="st1" d="M1174.5,624.8h-24.8v39.3h24.8V624.8z"/>
			<path id="path456" class="st0" d="M1151.5,626.5h21.3v35.8h-21.3V626.5z M1176.3,623.1H1148v42.7h28.2V623.1z"/>
			<path id="path458" class="st1" d="M1174.5,664.1h-24.8v39.3h24.8V664.1z"/>
			<path id="path460" class="st0" d="M1151.5,665.8h21.3v35.8h-21.3V665.8z M1176.3,662.3H1148v42.8h28.2V662.3z"/>
			<path id="path462" class="st1" d="M1174.5,585.8h-24.8v39.3h24.8V585.8z"/>
			<path id="path464" class="st0" d="M1151.5,587.5h21.3v35.9h-21.3V587.5z M1176.3,584.1H1148v42.8h28.2V584.1z"/>
			<path id="path466" class="st1" d="M1174.5,546.6h-24.8v39.3h24.8V546.6z"/>
			<path id="path468" class="st0" d="M1151.5,548.3h21.3v35.8h-21.3V548.3z M1176.3,544.8H1148v42.7h28.2V544.8z"/>
			<path id="path470" class="st1" d="M1174.5,507.6h-24.8v39.3h24.8V507.6z"/>
			<path id="path472" class="st0" d="M1151.5,509.3h21.3v35.9h-21.3V509.3z M1176.3,505.8H1148v42.8h28.2V505.8z"/>
			<path id="path474" class="st1" d="M1174.5,468.3h-24.8v39.3h24.8V468.3z"/>
			<path id="path476" class="st0" d="M1151.5,470h21.3v35.8h-21.3V470z M1176.3,466.6H1148v42.7h28.2V466.6z"/>
			<path id="path478" class="st1" d="M1174.5,429.4h-24.8v39.2h24.8V429.4z"/>
			<path id="path480" class="st0" d="M1151.5,431.1h21.3v35.8h-21.3V431.1z M1176.3,427.7H1148v42.7h28.2V427.7z"/>
			<path id="path482" class="st1" d="M1174.5,390.1h-24.8v39.3h24.8V390.1z"/>
			<path id="path484" class="st0" d="M1151.5,391.8h21.3v35.9h-21.3V391.8z M1176.3,388.3H1148v42.8h28.2V388.3z"/>
			<path id="path486" class="st1" d="M1174.5,351.1h-24.8v39.3h24.8V351.1z"/>
			<path id="path488" class="st0" d="M1151.5,352.9h21.3v35.8h-21.3V352.9z M1176.3,349.4H1148v42.7h28.2V349.4z"/>
			<path id="path490" class="st0" d="M1174.5,312.1h-24.8v39.4h24.8V312.1z"/>
			<path id="path492" class="st0" d="M1151.5,313.8h21.3v35.9h-21.3V313.8z M1176.3,310.4H1148v42.9h28.2V310.4z"/>
			<path id="path494" class="st1" d="M1174.5,272.9h-24.8v39.3h24.8V272.9z"/>
			<path id="path496" class="st0" d="M1151.5,274.6h21.3v35.8h-21.3V274.6z M1176.3,271.1H1148v42.7h28.2V271.1z"/>
			<path id="path498" class="st1" d="M1174.5,234h-24.8v39.3h24.8V234z"/>
			<path id="path500" class="st0" d="M1151.5,235.7h21.3v35.8h-21.3V235.7z M1176.3,232.3H1148V275h28.2V232.3z"/>
			<path id="path502" class="st1" d="M1199.7,624.8h-24.7v39.3h24.7V624.8z"/>
			<path id="path504" class="st0" d="M1176.7,626.5h21.3v35.8h-21.3V626.5z M1201.4,623.1h-28.2v42.7h28.2V623.1z"/>
			<path id="path506" class="st1" d="M1199.7,664.1h-24.7v39.3h24.7V664.1z"/>
			<path id="path508" class="st0" d="M1176.7,665.8h21.3v35.8h-21.3V665.8z M1201.4,662.3h-28.2v42.8h28.2V662.3z"/>
			<path id="path510" class="st1" d="M1199.7,585.8h-24.7v39.3h24.7V585.8z"/>
			<path id="path512" class="st0" d="M1176.7,587.5h21.3v35.9h-21.3V587.5z M1201.4,584.1h-28.2v42.8h28.2V584.1z"/>
			<path id="path514" class="st1" d="M1199.7,546.6h-24.7v39.3h24.7V546.6z"/>
			<path id="path516" class="st0" d="M1176.7,548.3h21.3v35.8h-21.3V548.3z M1201.4,544.8h-28.2v42.7h28.2V544.8z"/>
			<path id="path518" class="st1" d="M1199.7,507.6h-24.7v39.3h24.7V507.6z"/>
			<path id="path520" class="st0" d="M1176.7,509.3h21.3v35.9h-21.3V509.3z M1201.4,505.8h-28.2v42.8h28.2V505.8z"/>
			<path id="path522" class="st1" d="M1199.7,468.3h-24.7v39.3h24.7V468.3z"/>
			<path id="path524" class="st0" d="M1176.7,470h21.3v35.8h-21.3V470z M1201.4,466.6h-28.2v42.7h28.2V466.6z"/>
			<path id="path526" class="st1" d="M1199.7,429.4h-24.7v39.2h24.7V429.4z"/>
			<path id="path528" class="st0" d="M1176.7,431.1h21.3v35.8h-21.3V431.1z M1201.4,427.7h-28.2v42.7h28.2V427.7z"/>
			<path id="path530" class="st1" d="M1199.7,390.1h-24.7v39.3h24.7V390.1z"/>
			<path id="path532" class="st0" d="M1176.7,391.8h21.3v35.9h-21.3V391.8z M1201.4,388.3h-28.2v42.8h28.2V388.3z"/>
			<path id="path534" class="st1" d="M1199.7,351.1h-24.7v39.3h24.7V351.1z"/>
			<path id="path536" class="st0" d="M1176.7,352.9h21.3v35.8h-21.3V352.9z M1201.4,349.4h-28.2v42.7h28.2V349.4z"/>
			<path id="path538" class="st1" d="M1199.7,312.1h-24.7v39.4h24.7V312.1z"/>
			<path id="path540" class="st0" d="M1176.7,313.8h21.3v35.9h-21.3V313.8z M1201.4,310.4h-28.2v42.9h28.2V310.4z"/>
			<path id="path542" class="st1" d="M1199.7,272.9h-24.7v39.3h24.7V272.9z"/>
			<path id="path544" class="st0" d="M1176.7,274.6h21.3v35.8h-21.3V274.6z M1201.4,271.1h-28.2v42.7h28.2V271.1z"/>
			<path id="path546" class="st1" d="M1199.7,234h-24.7v39.3h24.7V234z"/>
			<path id="path548" class="st0" d="M1176.7,235.7h21.3v35.8h-21.3V235.7z M1201.4,232.3h-28.2V275h28.2V232.3z"/>
			<path id="path550" class="st1" d="M1225.2,624.8h-24.9v39.3h24.9V624.8z"/>
			<path id="path552" class="st0" d="M1202.1,626.5h21.4v35.8h-21.4V626.5z M1227,623.1h-28.3v42.7h28.3V623.1z"/>
			<path id="path554" class="st1" d="M1225.2,664.1h-24.9v39.3h24.9V664.1z"/>
			<path id="path556" class="st0" d="M1202.1,665.8h21.4v35.8h-21.4V665.8z M1227,662.3h-28.3v42.8h28.3V662.3z"/>
			<path id="path558" class="st1" d="M1225.2,585.8h-24.9v39.3h24.9V585.8z"/>
			<path id="path560" class="st0" d="M1202.1,587.5h21.4v35.9h-21.4V587.5z M1227,584.1h-28.3v42.8h28.3V584.1z"/>
			<path id="path562" class="st1" d="M1225.2,546.6h-24.9v39.3h24.9V546.6z"/>
			<path id="path564" class="st0" d="M1202.1,548.3h21.4v35.8h-21.4V548.3z M1227,544.8h-28.3v42.7h28.3V544.8z"/>
			<path id="path566" class="st1" d="M1225.2,507.6h-24.9v39.3h24.9V507.6z"/>
			<path id="path568" class="st0" d="M1202.1,509.3h21.4v35.9h-21.4V509.3z M1227,505.8h-28.3v42.8h28.3V505.8z"/>
			<path id="path570" class="st1" d="M1225.2,468.3h-24.9v39.3h24.9V468.3z"/>
			<path id="path572" class="st0" d="M1202.1,470h21.4v35.8h-21.4V470z M1227,466.6h-28.3v42.7h28.3V466.6z"/>
			<path id="path574" class="st1" d="M1225.2,429.4h-24.9v39.2h24.9V429.4z"/>
			<path id="path576" class="st0" d="M1202.1,431.1h21.4v35.8h-21.4V431.1z M1227,427.7h-28.3v42.7h28.3V427.7z"/>
			<path id="path578" class="st1" d="M1225.2,390.1h-24.9v39.3h24.9V390.1z"/>
			<path id="path580" class="st0" d="M1202.1,391.8h21.4v35.9h-21.4V391.8z M1227,388.3h-28.3v42.8h28.3V388.3z"/>
			<path id="path582" class="st1" d="M1225.2,351.1h-24.9v39.3h24.9V351.1z"/>
			<path id="path584" class="st0" d="M1202.1,352.9h21.4v35.8h-21.4V352.9z M1227,349.4h-28.3v42.7h28.3V349.4z"/>
			<path id="path586" class="st1" d="M1225.2,312.1h-24.9v39.4h24.9V312.1z"/>
			<path id="path588" class="st0" d="M1202.1,313.8h21.4v35.9h-21.4V313.8z M1227,310.4h-28.3v42.9h28.3V310.4z"/>
			<path id="path590" class="st1" d="M1225.2,272.9h-24.9v39.3h24.9V272.9z"/>
			<path id="path592" class="st0" d="M1202.1,274.6h21.4v35.8h-21.4V274.6z M1227,271.1h-28.3v42.7h28.3V271.1z"/>
			<path id="path594" class="st1" d="M1225.2,234h-24.9v39.3h24.9V234z"/>
			<path id="path596" class="st0" d="M1202.1,235.7h21.4v35.8h-21.4V235.7z M1227,232.3h-28.3V275h28.3V232.3z"/>
			<path id="path598" class="st1" d="M1250.6,624.8h-24.7v39.3h24.7V624.8z"/>
			<path id="path600" class="st0" d="M1227.6,626.5h21.2v35.8h-21.2V626.5z M1252.3,623.1h-28.2v42.7h28.2V623.1z"/>
			<path id="path602" class="st1" d="M1250.6,585.8h-24.7v39.3h24.7V585.8z"/>
			<path id="path604" class="st0" d="M1227.6,587.5h21.2v35.9h-21.2V587.5z M1252.3,584.1h-28.2v42.8h28.2V584.1z"/>
			<path id="path606" class="st1" d="M1250.6,546.6h-24.7v39.3h24.7V546.6z"/>
			<path id="path608" class="st0" d="M1227.6,548.3h21.2v35.8h-21.2V548.3z M1252.3,544.8h-28.2v42.7h28.2V544.8z"/>
			<path id="path610" class="st1" d="M1250.6,507.6h-24.7v39.3h24.7V507.6z"/>
			<path id="path612" class="st0" d="M1227.6,509.3h21.2v35.9h-21.2V509.3z M1252.3,505.8h-28.2v42.8h28.2V505.8z"/>
			<path id="path614" class="st1" d="M1250.6,468.3h-24.7v39.3h24.7V468.3z"/>
			<path id="path616" class="st0" d="M1227.6,470h21.2v35.8h-21.2V470z M1252.3,466.6h-28.2v42.7h28.2V466.6z"/>
			<path id="path618" class="st1" d="M1250.6,429.4h-24.7v39.2h24.7V429.4z"/>
			<path id="path620" class="st0" d="M1227.6,431.1h21.2v35.8h-21.2V431.1z M1252.3,427.7h-28.2v42.7h28.2V427.7z"/>
			<path id="path622" class="st1" d="M1250.6,390.1h-24.7v39.3h24.7V390.1z"/>
			<path id="path624" class="st0" d="M1227.6,391.8h21.2v35.9h-21.2V391.8z M1252.3,388.3h-28.2v42.8h28.2V388.3z"/>
			<path id="path626" class="st1" d="M1250.6,351.1h-24.7v39.3h24.7V351.1z"/>
			<path id="path628" class="st0" d="M1227.6,352.9h21.2v35.8h-21.2V352.9z M1252.3,349.4h-28.2v42.7h28.2V349.4z"/>
			<path id="path630" class="st1" d="M1250.6,312.1h-24.7v39.4h24.7V312.1z"/>
			<path id="path632" class="st0" d="M1227.6,313.8h21.2v35.9h-21.2V313.8z M1252.3,310.4h-28.2v42.9h28.2V310.4z"/>
			<path id="path634" class="st1" d="M1250.6,272.9h-24.7v39.3h24.7V272.9z"/>
			<path id="path636" class="st0" d="M1227.6,274.6h21.2v35.8h-21.2V274.6z M1252.3,271.1h-28.2v42.7h28.2V271.1z"/>
			<path id="path638" class="st1" d="M1250.6,234h-24.7v39.3h24.7V234z"/>
			<path id="path640" class="st0" d="M1227.6,235.7h21.2v35.8h-21.2V235.7z M1252.3,232.3h-28.2V275h28.2V232.3z"/>
			<path id="path642" class="st1" d="M1276.2,624.8h-24.8v39.3h24.8V624.8z"/>
			<path id="path644" class="st0" d="M1253.1,626.5h21.3v35.8h-21.3V626.5z M1277.9,623.1h-28.3v42.7h28.3V623.1z"/>
			<path id="path646" class="st0" d="M1276.2,585.8h-24.8v39.3h24.8V585.8z"/>
			<path id="path648" class="st0" d="M1253.1,587.5h21.3v35.9h-21.3V587.5z M1277.9,584.1h-28.3v42.8h28.3V584.1z"/>
			<path id="path650" class="st1" d="M1276.2,546.6h-24.8v39.3h24.8V546.6z"/>
			<path id="path652" class="st0" d="M1253.1,548.3h21.3v35.8h-21.3V548.3z M1277.9,544.8h-28.3v42.7h28.3V544.8z"/>
			<path id="path654" class="st1" d="M1276.2,507.6h-24.8v39.3h24.8V507.6z"/>
			<path id="path656" class="st0" d="M1253.1,509.3h21.3v35.9h-21.3V509.3z M1277.9,505.8h-28.3v42.8h28.3V505.8z"/>
			<path id="path658" class="st1" d="M1276.2,468.3h-24.8v39.3h24.8V468.3z"/>
			<path id="path660" class="st0" d="M1253.1,470h21.3v35.8h-21.3V470z M1277.9,466.6h-28.3v42.7h28.3V466.6z"/>
			<path id="path662" class="st1" d="M1276.2,429.4h-24.8v39.2h24.8V429.4z"/>
			<path id="path664" class="st0" d="M1253.1,431.1h21.3v35.8h-21.3V431.1z M1277.9,427.7h-28.3v42.7h28.3V427.7z"/>
			<path id="path666" class="st1" d="M1276.2,390.1h-24.8v39.3h24.8V390.1z"/>
			<path id="path668" class="st0" d="M1253.1,391.8h21.3v35.9h-21.3V391.8z M1277.9,388.3h-28.3v42.8h28.3V388.3z"/>
			<path id="path670" class="st1" d="M1276.2,351.1h-24.8v39.3h24.8V351.1z"/>
			<path id="path672" class="st0" d="M1253.1,352.9h21.3v35.8h-21.3V352.9z M1277.9,349.4h-28.3v42.7h28.3V349.4z"/>
			<path id="path674" class="st1" d="M1276.2,312.1h-24.8v39.4h24.8V312.1z"/>
			<path id="path676" class="st0" d="M1253.1,313.8h21.3v35.9h-21.3V313.8z M1277.9,310.4h-28.3v42.9h28.3V310.4z"/>
			<path id="path678" class="st0" d="M1276.2,272.9h-24.8v39.3h24.8V272.9z"/>
			<path id="path680" class="st0" d="M1253.1,274.6h21.3v35.8h-21.3V274.6z M1277.9,271.1h-28.3v42.7h28.3V271.1z"/>
			<path id="path682" class="st1" d="M1301.3,624.8h-24.8v39.3h24.8V624.8z"/>
			<path id="path684" class="st0" d="M1278.2,626.5h21.3v35.8h-21.3V626.5z M1303,623.1h-28.3v42.7h28.3V623.1z"/>
			<path id="path686" class="st1" d="M1301.3,585.8h-24.8v39.3h24.8V585.8z"/>
			<path id="path688" class="st0" d="M1278.2,587.5h21.3v35.9h-21.3V587.5z M1303,584.1h-28.3v42.8h28.3V584.1z"/>
			<path id="path690" class="st1" d="M1301.3,546.6h-24.8v39.3h24.8V546.6z"/>
			<path id="path692" class="st0" d="M1278.2,548.3h21.3v35.8h-21.3V548.3z M1303,544.8h-28.3v42.7h28.3V544.8z"/>
			<path id="path694" class="st1" d="M1301.3,507.6h-24.8v39.3h24.8V507.6z"/>
			<path id="path696" class="st0" d="M1278.2,509.3h21.3v35.9h-21.3V509.3z M1303,505.8h-28.3v42.8h28.3V505.8z"/>
			<path id="path698" class="st1" d="M1301.3,468.3h-24.8v39.3h24.8V468.3z"/>
			<path id="path700" class="st0" d="M1278.2,470h21.3v35.8h-21.3V470z M1303,466.6h-28.3v42.7h28.3V466.6z"/>
			<path id="path702" class="st1" d="M1301.3,429.4h-24.8v39.2h24.8V429.4z"/>
			<path id="path704" class="st0" d="M1278.2,431.1h21.3v35.8h-21.3V431.1z M1303,427.7h-28.3v42.7h28.3V427.7z"/>
			<path id="path706" class="st1" d="M1301.3,390.1h-24.8v39.3h24.8V390.1z"/>
			<path id="path708" class="st0" d="M1278.2,391.8h21.3v35.9h-21.3V391.8z M1303,388.3h-28.3v42.8h28.3V388.3z"/>
			<path id="path710" class="st1" d="M1301.3,351.1h-24.8v39.3h24.8V351.1z"/>
			<path id="path712" class="st0" d="M1278.2,352.9h21.3v35.8h-21.3V352.9z M1303,349.4h-28.3v42.7h28.3V349.4z"/>
			<path id="path714" class="st0" d="M1301.3,312.1h-24.8v39.4h24.8V312.1z"/>
			<path id="path716" class="st0" d="M1278.2,313.8h21.3v35.9h-21.3V313.8z M1303,310.4h-28.3v42.9h28.3V310.4z"/>
			<path id="path718" class="st1" d="M1301.3,272.9h-24.8v39.3h24.8V272.9z"/>
			<path id="path720" class="st0" d="M1278.2,274.6h21.3v35.8h-21.3V274.6z M1303,271.1h-28.3v42.7h28.3V271.1z"/>
			<path id="path722" class="st1" d="M1326.8,585.8H1302v39.3h24.8V585.8z"/>
			<path id="path724" class="st0" d="M1303.7,587.5h21.3v35.9h-21.3V587.5z M1328.5,584.1h-28.2v42.8h28.2V584.1z"/>
			<path id="path726" class="st1" d="M1326.8,546.6H1302v39.3h24.8V546.6z"/>
			<path id="path728" class="st0" d="M1303.7,548.3h21.3v35.8h-21.3V548.3z M1328.5,544.8h-28.2v42.7h28.2V544.8z"/>
			<path id="path730" class="st1" d="M1326.8,507.6H1302v39.3h24.8V507.6z"/>
			<path id="path732" class="st0" d="M1303.7,509.3h21.3v35.9h-21.3V509.3z M1328.5,505.8h-28.2v42.8h28.2V505.8z"/>
			<path id="path734" class="st1" d="M1326.8,468.3H1302v39.3h24.8V468.3z"/>
			<path id="path736" class="st0" d="M1303.7,470h21.3v35.8h-21.3V470z M1328.5,466.6h-28.2v42.7h28.2V466.6z"/>
			<path id="path738" class="st1" d="M1326.8,429.4H1302v39.2h24.8V429.4z"/>
			<path id="path740" class="st0" d="M1303.7,431.1h21.3v35.8h-21.3V431.1z M1328.5,427.7h-28.2v42.7h28.2V427.7z"/>
			<path id="path742" class="st1" d="M1326.8,390.1H1302v39.3h24.8V390.1z"/>
			<path id="path744" class="st0" d="M1303.7,391.8h21.3v35.9h-21.3V391.8z M1328.5,388.3h-28.2v42.8h28.2V388.3z"/>
			<path id="path746" class="st1" d="M1326.8,351.1H1302v39.3h24.8V351.1z"/>
			<path id="path748" class="st0" d="M1303.7,352.9h21.3v35.8h-21.3V352.9z M1328.5,349.4h-28.2v42.7h28.2V349.4z"/>
			<path id="path750" class="st1" d="M1326.8,312.1H1302v39.4h24.8V312.1z"/>
			<path id="path752" class="st0" d="M1303.7,313.8h21.3v35.9h-21.3V313.8z M1328.5,310.4h-28.2v42.9h28.2V310.4z"/>
			<path id="path754" class="st1" d="M1352.2,546.6h-24.8v39.3h24.8V546.6z"/>
			<path id="path756" class="st0" d="M1329.2,548.3h21.3v35.8h-21.3V548.3z M1354,544.8h-28.2v42.7h28.2V544.8z"/>
			<path id="path758" class="st1" d="M1352.2,507.6h-24.8v39.3h24.8V507.6z"/>
			<path id="path760" class="st0" d="M1329.2,509.3h21.3v35.9h-21.3V509.3z M1354,505.8h-28.2v42.8h28.2V505.8z"/>
			<path id="path762" class="st1" d="M1352.2,468.3h-24.8v39.3h24.8V468.3z"/>
			<path id="path764" class="st0" d="M1329.2,470h21.3v35.8h-21.3V470z M1354,466.6h-28.2v42.7h28.2V466.6z"/>
			<path id="path766" class="st1" d="M1352.2,429.4h-24.8v39.2h24.8V429.4z"/>
			<path id="path768" class="st0" d="M1329.2,431.1h21.3v35.8h-21.3V431.1z M1354,427.7h-28.2v42.7h28.2V427.7z"/>
			<path id="path770" class="st1" d="M1352.2,390.1h-24.8v39.3h24.8V390.1z"/>
			<path id="path772" class="st0" d="M1329.2,391.8h21.3v35.9h-21.3V391.8z M1354,388.3h-28.2v42.8h28.2V388.3z"/>
			<path id="path774" class="st1" d="M1352.2,351.1h-24.8v39.3h24.8V351.1z"/>
			<path id="path776" class="st0" d="M1329.2,352.9h21.3v35.8h-21.3V352.9z M1354,349.4h-28.2v42.7h28.2V349.4z"/>
			<path id="path778" class="st1" d="M1352.2,312.1h-24.8v39.4h24.8V312.1z"/>
			<path id="path780" class="st0" d="M1329.2,313.8h21.3v35.9h-21.3V313.8z M1354,310.4h-28.2v42.9h28.2V310.4z"/>
			<path id="path782" class="st1" d="M1377.7,507.6H1353v39.3h24.7V507.6z"/>
			<path id="path784" class="st0" d="M1354.7,509.3h21.3v35.9h-21.3V509.3z M1379.5,505.8h-28.2v42.8h28.2V505.8z"/>
			<path id="path786" class="st1" d="M1377.7,468.3H1353v39.3h24.7V468.3z"/>
			<path id="path788" class="st0" d="M1354.7,470h21.3v35.8h-21.3V470z M1379.5,466.6h-28.2v42.7h28.2V466.6z"/>
			<path id="path790" class="st1" d="M1377.7,429.4H1353v39.2h24.7V429.4z"/>
			<path id="path792" class="st0" d="M1354.7,431.1h21.3v35.8h-21.3V431.1z M1379.5,427.7h-28.2v42.7h28.2V427.7z"/>
			<path id="path794" class="st1" d="M1377.7,390.1H1353v39.3h24.7V390.1z"/>
			<path id="path796" class="st0" d="M1354.7,391.8h21.3v35.9h-21.3V391.8z M1379.5,388.3h-28.2v42.8h28.2V388.3z"/>
			<g id="g798" transform="translate(839.9463,708.9419)">
				<path id="path800" class="st1" d="M562.5-279.5l-24.4,0v39.2l27.2,0.1L562.5-279.5z"/>
			</g>
			<g id="g802" transform="translate(837.5195,712.957)">
				<path id="path804" class="st0" d="M542.3-246.1v-35.8l21,0l2.5,35.9L542.3-246.1z M538.8-285.3v42.7l30.8,0.2l-3-42.8
					L538.8-285.3z"/>
			</g>
			<g id="g806" transform="translate(791.0703,729.4971)">
				<path id="path808" class="st1" d="M155.2-108.2v-35.5h24.7v39.3h-21.7C157.2-105.6,156.2-106.9,155.2-108.2"/>
			</g>
			<g id="g810" transform="translate(791.2559,725.8828)">
				<path id="path812" class="st0" d="M156.7-138.3H178v35.9h-19.2c-0.7-0.9-1.4-1.8-2.1-2.7V-138.3z M181.5-141.8h-28.2v37.8
					l0.3,0.5c1,1.3,2,2.7,3.1,3.9l0.5,0.6h24.3V-141.8z"/>
			</g>
			<g id="g814" transform="translate(791.0244,725.6973)">
				<path id="path816" class="st1" d="M154.8-139.9h-22.3c-0.8-1.5-1.7-3.1-2.5-4.8v-34.5h24.8V-139.9z"/>
			</g>
			<g id="g818" transform="translate(788.5488,721.6772)">
				<path id="path820" class="st0" d="M134.2-173.4h21.4v35.8H136c-0.6-1.1-1.2-2.3-1.8-3.5V-173.4z M159-176.9h-28.3l0.2,37
					c0.9,1.7,1.7,3.3,2.5,4.8l0.5,0.9H159V-176.9z"/>
			</g>
			<g id="g822" transform="translate(837.2979,725.2632)">
				<path id="path824" class="st1" d="M540.4-143.5c-0.7,1.4-1.4,2.7-2,4.1h-22.7v-39.3h24.7V-143.5z"/>
			</g>
			<g id="g826" transform="translate(834.832,721.6772)">
				<path id="path828" class="st0" d="M519.9-173.4h21.3v33.1l-1.4,2.7h-19.9V-173.4z M544.6-176.9h-28.2v42.7h25.5l2.7-5.8V-176.9z
					"/>
			</g>
			<g id="g830" transform="translate(834.5654,729.5952)">
				<path id="path832" class="st1" d="M517.7-107.4c-0.7,1-1.5,2-2.3,2.9h-22.5v-39.3h24.8V-107.4z"/>
			</g>
			<g id="g834" transform="translate(832.0977,725.8828)">
				<path id="path836" class="st0" d="M497.1-138.3h21.3v34.1c-0.5,0.6-0.9,1.2-1.4,1.8h-19.9V-138.3z M521.9-141.8h-28.2V-99h25
					l0.5-0.6c0.9-1.1,1.6-2,2.4-3l0.3-0.4V-141.8z"/>
			</g>
			<g id="g838" transform="translate(823.2168,738.29)">
				<path id="path840" class="st1" d="M423.1-34.9h-20.4v-39.3h24.7v37.5C426-36.1,424.6-35.5,423.1-34.9"/>
			</g>
			<g id="g842" transform="translate(821.2119,734.2666)">
				<path id="path844" class="st0" d="M406.4-68.5h21.2v34.7c-0.6,0.2-1.1,0.5-1.7,0.7l-1.1,0.4h-18.4V-68.5z M431.1-71.9h-28.2
					v42.8l22.8-0.1l1.4-0.6c1-0.4,2-0.8,2.9-1.2l1-0.5V-71.9z"/>
			</g>
			<g id="g846" transform="translate(804.6025,739.0601)">
				<path id="path848" class="st1" d="M268-28.5c-6.9-2.2-13.7-4.7-20.5-7.5H268V-28.5z"/>
			</g>
			<g id="g850" transform="translate(803.3887,738.4419)">
				<path id="path852" class="st0" d="M257.8-33.7h9.6v3.4C264.3-31.3,261.1-32.5,257.8-33.7 M270.9-37.1h-22.2l-0.7,3.3
					c6.8,2.8,13.8,5.4,20.6,7.6l2.3,0.7V-37.1z"/>
			</g>
			<g id="g854" transform="translate(804.6787,739.0825)">
				<path id="path856" class="st1" d="M268.6-28.3V-36h24.8v14.2C285-23.7,276.7-25.8,268.6-28.3"/>
			</g>
			<g id="g858" transform="translate(804.8643,738.4419)">
				<path id="path860" class="st0" d="M270.1-33.7h21.4v10.3c-7.1-1.6-14.3-3.5-21.4-5.6V-33.7z M295-37.1h-28.3v10.7l1.2,0.4
					c8.3,2.5,16.7,4.7,25,6.5l2.1,0.4V-37.1z"/>
			</g>
			<g id="g862" transform="translate(807.4121,739.7915)">
				<path id="path864" class="st1" d="M291.4-22.4v-14.3h24.8v18.1C307.8-19.5,299.6-20.7,291.4-22.4"/>
			</g>
			<g id="g866" transform="translate(807.5977,738.4419)">
				<path id="path868" class="st0" d="M292.9-33.7h21.3v14.5c-7.1-0.8-14.3-1.9-21.3-3.3V-33.7z M317.7-37.1h-28.2v17.5l1.4,0.3
					c8.2,1.7,16.6,3,24.9,3.8l1.9,0.2V-37.1z"/>
			</g>
			<g id="g870" transform="translate(812.8008,740.3354)">
				<path id="path872" class="st1" d="M336.3-17.9c-8.4,0-16.6-0.4-24.8-1.3v-18.1h24.8V-17.9z"/>
			</g>
			<g id="g874" transform="translate(810.3301,738.4419)">
				<path id="path876" class="st0" d="M315.7-33.7H337v15.9c-7.3-0.1-14.3-0.4-21.3-1.1V-33.7z M340.5-37.1h-28.2v21.4l1.5,0.2
					c8.2,0.8,16.4,1.3,25,1.3l1.7,0V-37.1z"/>
			</g>
			<g id="g878" transform="translate(815.5264,738.2563)">
				<path id="path880" class="st1" d="M359-35.2V-17c-8.1,0.8-16.4,1.3-24.8,1.3v-19.5H359z"/>
			</g>
			<g id="g882" transform="translate(813.0596,738.4419)">
				<path id="path884" class="st0" d="M338.4-33.7h21.3v14.9c-7.5,0.7-14.5,1-21.3,1.1V-33.7z M363.2-37.1H335v22.9h1.7
					c7.9,0,16.1-0.4,24.9-1.3l1.6-0.1V-37.1z"/>
			</g>
			<g id="g886" transform="translate(815.5703,740.2036)">
				<path id="path888" class="st1" d="M359.4-19v-18.2h24.7v14.5C376-21,367.7-19.8,359.4-19"/>
			</g>
			<g id="g890" transform="translate(815.7559,738.4419)">
				<path id="path892" class="st0" d="M360.9-33.7h21.3v11.3c-7.1,1.4-14.2,2.5-21.3,3.2V-33.7z M385.7-37.1h-28.2v21.8l1.9-0.2
					c8.3-0.8,16.7-2,25-3.8l1.4-0.3V-37.1z"/>
			</g>
			<g id="g894" transform="translate(821.0264,739.0937)">
				<path id="path896" class="st1" d="M404.8-28.2v-7.8h21.4C419.1-33.2,412.1-30.5,404.8-28.2"/>
			</g>
			<g id="g898" transform="translate(821.2119,738.4419)">
				<path id="path900" class="st0" d="M406.4-33.7h10.5c-3.7,1.4-7.2,2.6-10.5,3.7V-33.7z M426-37.1h-23.1v11.9l2.2-0.7
					c6.4-2,13.2-4.5,21.5-7.9L426-37.1z"/>
			</g>
			<g id="g902" transform="translate(826.4189,736.7207)">
				<path id="path904" class="st1" d="M449.8-48c-8,4.6-16.3,8.8-24.8,12.5v-37.2h24.8V-48z"/>
			</g>
			<g id="g906" transform="translate(823.9473,734.2666)">
				<path id="path908" class="st0" d="M429.2-68.5h21.3v21.9c-7,4-14.2,7.6-21.3,10.9V-68.5z M454-71.9h-28.3v41.5l2.4-1.1
					c8.3-3.7,16.7-7.9,25-12.6l0.9-0.5V-71.9z"/>
			</g>
			<g id="g910" transform="translate(826.4512,736.7012)">
				<path id="path912" class="st1" d="M450.1-48.2v-24.5h24.8v8.3C466.9-58.5,458.7-53.1,450.1-48.2"/>
			</g>
			<g id="g914" transform="translate(826.6367,734.2666)">
				<path id="path916" class="st0" d="M451.6-68.5h21.3v5.7c-7,5.1-14.1,9.8-21.3,14V-68.5z M476.4-71.9h-28.3v29.2l2.6-1.5
					c8.4-4.8,16.8-10.3,25-16.3l0.7-0.5V-71.9z"/>
			</g>
			<g id="g918" transform="translate(829.1826,734.9102)">
				<path id="path920" class="st1" d="M472.8-63.1v-7.7h9.9C479.5-68.2,476.2-65.6,472.8-63.1"/>
			</g>
			<g id="g922" transform="translate(830.7578,733.896)">
				<path id="path924" class="st0" d="M485.9-71.6h-16.4v12.9l2.8-2c3.3-2.5,6.6-5,10-7.8L485.9-71.6z"/>
			</g>
			<g id="g926" transform="translate(830.2412,734.0811)">
				<path id="path928" class="st1" d="M481.6-70h-9.9v-39.3h24.8v25.9C491.7-78.8,486.8-74.3,481.6-70"/>
			</g>
			<g id="g930" transform="translate(829.3682,730.061)">
				<path id="path932" class="st0" d="M474.4-103.5h21.3v23.4c-5.2,5-9.6,8.9-13.8,12.4h-7.5V-103.5z M499.1-107h-28.2v42.7h12.2
					l0.5-0.4c4.6-3.7,9.3-8,15-13.5l0.5-0.5V-107z"/>
			</g>
			<g id="g934" transform="translate(834.6465,729.4971)">
				<path id="path936" class="st1" d="M518.4-108.2v-35.5h22.7C534.4-131.2,526.8-119.4,518.4-108.2"/>
			</g>
			<g id="g938" transform="translate(834.832,725.8828)">
				<path id="path940" class="st0" d="M519.9-138.3H538c-5.4,9.9-11.5,19.5-18.1,28.5V-138.3z M543.8-141.8h-27.3v42.3l3.1-4.1
					c8.5-11.2,16.1-23.2,22.9-35.7L543.8-141.8z"/>
			</g>
			<g id="g942" transform="translate(837.334,725.1904)">
				<path id="path944" class="st1" d="M540.7-144.1v-34.5h14.3C551.2-166.7,546.4-155.2,540.7-144.1"/>
			</g>
			<g id="g946" transform="translate(837.5195,721.6772)">
				<path id="path948" class="st0" d="M542.3-173.4h10.2c-2.9,8.5-6.3,17-10.2,25.3V-173.4z M557.3-176.9h-18.4v36.3l3.3,0.8
					c5.7-11.3,10.6-23,14.4-34.8L557.3-176.9z"/>
			</g>
			<g id="g950" transform="translate(838.8633,721.5278)">
				<path id="path952" class="st1" d="M553.5-174.6h-14.3V-214h23.9C560.9-200.4,557.7-187.4,553.5-174.6"/>
			</g>
			<g id="g954" transform="translate(837.5195,717.4995)">
				<path id="path956" class="st0" d="M542.3-208.2h20.1c-2,11.9-5,24-8.8,35.9h-11.3V-208.2z M566.5-211.7h-27.6v42.8h17.3l0.4-1.2
					c4.3-13.1,7.6-26.4,9.7-39.6L566.5-211.7z"/>
			</g>
			<g id="g958" transform="translate(839.0039,704.7642)">
				<path id="path960" class="st1" d="M554.7-314.3h-15.6v-38.1C545.2-340.3,550.5-327.6,554.7-314.3"/>
			</g>
			<g id="g962" transform="translate(837.5195,704.5791)">
				<path id="path964" class="st0" d="M542.3-315.9v-28.9c4.5,9.6,8.4,19.3,11.5,28.9H542.3z M542.1-353.1l-3.3,0.8v39.9h19.7
					l-0.7-2.2C553.8-327.5,548.5-340.4,542.1-353.1"/>
			</g>
			<g id="g966" transform="translate(834.6465,700.5952)">
				<path id="path968" class="st1" d="M518.4-349.1v-39.4h0.2c9.3,12.3,17.4,25.6,24.5,39.4H518.4z"/>
			</g>
			<g id="g970" transform="translate(834.832,700.4097)">
				<path id="path972" class="st0" d="M519.9-350.6v-32.7c7.3,10,14,21,20.1,32.7H519.9z M519.2-390h-2.8v42.9h29.3l-1.3-2.5
					c-7.4-14.4-15.7-27.7-24.7-39.6L519.2-390z"/>
			</g>
			<g id="g974" transform="translate(831.9121,693.2793)">
				<path id="path976" class="st1" d="M495.6-410.1c8.9,8.6,17.2,17.8,24.8,27.7v1.2h-24.8V-410.1z"/>
			</g>
			<g id="g978" transform="translate(832.0977,696.1895)">
				<path id="path980" class="st0" d="M497.1-385.8v-23c7.3,7.4,14.2,15.1,20.4,23H497.1z M493.6-417.1v34.7h28.2v-3.5l-0.4-0.5
					c-7.5-9.7-15.8-19.1-24.9-27.9L493.6-417.1z"/>
			</g>
			<g id="g982" transform="translate(829.1826,692.1699)">
				<path id="path984" class="st1" d="M472.8-419.3h14.2c3.6,3.1,7.1,6.4,10.5,9.7v29.6h-24.8V-419.3z"/>
			</g>
			<g id="g986" transform="translate(829.3682,692.3555)">
				<path id="path988" class="st0" d="M474.4-417.8h11.9c3.3,2.9,6.5,5.9,9.4,8.7v27.1h-21.3V-417.8z M487.5-421.2h-16.6v42.7h28.2
					v-32l-0.5-0.5c-3.3-3.1-6.8-6.5-10.6-9.8L487.5-421.2z"/>
			</g>
			<g id="g990" transform="translate(829.1826,692.2144)">
				<path id="path992" class="st1" d="M472.8-418.9v-11.8c5,3.7,9.9,7.7,14.7,11.8H472.8z"/>
			</g>
			<g id="g994" transform="translate(829.3682,692.0288)">
				<path id="path996" class="st0" d="M474.4-420.5v-6.6c2.9,2.2,5.6,4.4,8.3,6.6H474.4z M470.9-434v17h21l-3.4-3
					c-4.6-4-9.5-8-14.8-11.9L470.9-434z"/>
			</g>
			<g id="g998" transform="translate(826.4512,689.1631)">
				<path id="path1000" class="st1" d="M450.1-444.4c8.6,5,16.9,10.2,24.8,16.1v12.4h-24.8V-444.4z"/>
			</g>
			<g id="g1002" transform="translate(826.6367,692.0288)">
				<path id="path1004" class="st0" d="M451.6-420.5v-23.7c8.3,4.9,15.2,9.4,21.3,13.9v9.8H451.6z M448.1-450.3v33.2h28.3v-15
					l-0.7-0.5c-7.1-5.2-15-10.4-25-16.2L448.1-450.3z"/>
			</g>
			<g id="g1006" transform="translate(823.7607,688.0059)">
				<path id="path1008" class="st1" d="M427.6-454h4.3c7,3.2,13.9,6.8,20.5,10.6v28.7h-24.8V-454z"/>
			</g>
			<g id="g1010" transform="translate(823.9473,688.1914)">
				<path id="path1012" class="st0" d="M429.2-452.5h2.1c5.7,2.6,11.9,5.8,19.2,9.9v25.9h-21.3V-452.5z M432.1-455.9h-6.4v42.7H454
					v-31.4l-0.9-0.5c-7.9-4.5-14.5-7.9-20.7-10.7L432.1-455.9z"/>
			</g>
			<g id="g1014" transform="translate(801.9141,692.2144)">
				<path id="path1016" class="st1" d="M245.6-418.9h-24.8v-28.6c6.7-3.8,13.5-7.5,20.5-10.6h4.3V-418.9z"/>
			</g>
			<g id="g1018" transform="translate(801.498,688.1914)">
				<path id="path1020" class="st0" d="M242.1-452.5h2.1v35.8h-21.3v-25.9C230.2-446.7,236.4-449.9,242.1-452.5 M247.7-455.9
					l-6.7,0.1c-6.1,2.8-12.7,6.2-20.7,10.7l-0.9,0.5v31.4h28.3V-455.9z"/>
			</g>
			<g id="g1022" transform="translate(796.5312,690.9229)">
				<path id="path1024" class="st1" d="M200.7-429.7c7.9-5.9,16.2-11.2,24.7-16.2v28.2h-24.7V-429.7z"/>
			</g>
			<g id="g1026" transform="translate(796.7168,691.0161)">
				<path id="path1028" class="st0" d="M202.2-428.9c6.5-4.8,13.5-9.4,21.3-14v23.5h-21.3V-428.9z M227-449l-2.6,1.5
					c-9.3,5.4-17.4,10.7-24.9,16.3l-0.7,0.5v14.7H227V-449z"/>
			</g>
			<g id="g1030" transform="translate(796.4512,690.9844)">
				<path id="path1032" class="st1" d="M200-429.2v11.5h-14.3C190.4-421.7,195.1-425.6,200-429.2"/>
			</g>
			<g id="g1034" transform="translate(795.4258,692.0288)">
				<path id="path1036" class="st0" d="M191.5-420.5c2.7-2.2,5.3-4.3,7.8-6.3v6.3H191.5z M202.8-433.7l-2.8,2
					c-4.7,3.4-9.4,7.2-14.4,11.6l-3.5,3h20.6V-433.7z"/>
			</g>
			<g id="g1038" transform="translate(793.7959,693.251)">
				<path id="path1040" class="st1" d="M177.9-410.3c3.6-3.4,7.2-6.8,10.9-10.1h13.8v39.3h-24.8V-410.3z"/>
			</g>
			<g id="g1042" transform="translate(795.0381,692.3555)">
				<path id="path1044" class="st0" d="M188.2-417.8h11.5v35.8h-21.3v-26.7C182.1-412.2,185.3-415.2,188.2-417.8 M203.2-421.2h-16.2
					l-0.5,0.4c-3.3,2.9-6.8,6.1-11,10.1l-0.5,0.5v31.6h28.3V-421.2z"/>
			</g>
			<g id="g1046" transform="translate(791.0703,696.3135)">
				<path id="path1048" class="st1" d="M155.2-384.8c7.5-9.8,15.8-19.2,24.7-27.9v28.5h-24.7V-384.8z"/>
			</g>
			<g id="g1050" transform="translate(791.4004,696.1895)">
				<path id="path1052" class="st0" d="M157.9-385.8c6.1-7.8,12.8-15.4,19.9-22.6v22.6H157.9z M181.3-416.7l-2.9,2.9
					c-9.1,8.9-17.5,18.4-24.9,28.1l-0.4,0.5v2.9h28.2V-416.7z"/>
			</g>
			<g id="g1054" transform="translate(791.0244,700.5952)">
				<path id="path1056" class="st1" d="M154.8-349.1h-24.5c7-13.8,15.1-27.1,24.4-39.4h0.1V-349.1z"/>
			</g>
			<g id="g1058" transform="translate(788.7002,700.4097)">
				<path id="path1060" class="st0" d="M135.4-350.6c6-11.5,12.6-22.4,20-32.5v32.5H135.4z M158.9-390h-2.7l-0.5,0.7
					c-9.2,12.1-17.4,25.5-24.6,39.7l-1.3,2.5h29.1V-390z"/>
			</g>
			<g id="g1062" transform="translate(788.2979,708.9395)">
				<path id="path1064" class="st1" d="M132.1-279.5h-23.8c2-13.5,5-26.6,9-39.3h14.8V-279.5z"/>
			</g>
			<g id="g1066" transform="translate(786.8486,704.9102)">
				<path id="path1068" class="st0" d="M120-313.1h11.8v35.9h-20.1C113.5-289.1,116.3-301.2,120-313.1 M135.3-316.6h-17.8l-0.4,1.2
					c-4.2,13.2-7.2,26.5-9.1,39.6l-0.3,2h27.6V-316.6z"/>
			</g>
			<g id="g1070" transform="translate(788.2979,700.7964)">
				<path id="path1072" class="st1" d="M132.1-347.4v37h-14.9C121.2-323.2,126.2-335.5,132.1-347.4"/>
			</g>
			<g id="g1074" transform="translate(786.958,704.5791)">
				<path id="path1076" class="st0" d="M120.9-315.9c3-9.3,6.6-18.6,10.8-27.6v27.6H120.9z M131.9-352c-6,12.2-11.1,24.7-15,37.3
					l-0.7,2.2h19v-38.8L131.9-352z"/>
			</g>
			<g id="g1078" transform="translate(788.2979,717.314)">
				<path id="path1080" class="st1" d="M132.1-209.8h-23.1c-0.7-3.8-1.2-7.6-1.7-11.6l-1.4-27.9l26.2,0.1V-209.8z"/>
			</g>
			<g id="g1082" transform="translate(785.9727,717.1289)">
				<path id="path1084" class="st0" d="M112.7-211.3c-0.6-3.4-1-6.8-1.4-10l-1.3-25.9l22.6,0.1v35.8H112.7z M106.4-250.7l1.4,29.7
					c0.5,3.8,1,7.8,1.7,11.8l0.3,1.4h26.3v-42.7L106.4-250.7z"/>
			</g>
			<g id="g1086" transform="translate(788.2979,717.314)">
				<path id="path1088" class="st1" d="M132.1-209.8v39.3h-13.5c-4.2-12.7-7.5-25.8-9.7-39.3H132.1z"/>
			</g>
			<g id="g1090" transform="translate(786.0352,717.4995)">
				<path id="path1092" class="st0" d="M113.2-208.2h19.4v35.9h-10.5C118.2-184.1,115.3-196.2,113.2-208.2 M136.1-211.7h-26.9l0.3,2
					c2.1,13.3,5.4,26.6,9.7,39.6l0.4,1.2h16.5V-211.7z"/>
			</g>
			<g id="g1094" transform="translate(788.2979,721.4917)">
				<path id="path1096" class="st1" d="M132.1-174.9v33.2c-5.3-10.7-9.9-21.8-13.7-33.2H132.1z"/>
			</g>
			<g id="g1098" transform="translate(787.0928,721.6772)">
				<path id="path1100" class="st0" d="M122-173.4h9.5v23.8C128-157.4,124.8-165.4,122-173.4 M135-176.9h-17.8l0.8,2.3
					c3.8,11.3,8.4,22.5,13.8,33.4l3.3-0.8V-176.9z"/>
			</g>
			<g id="g1102" transform="translate(793.7197,729.876)">
				<path id="path1104" class="st1" d="M177.3-105.1v24.5c-7.9-7.7-15.2-15.9-22-24.5H177.3z"/>
			</g>
			<g id="g1106" transform="translate(791.748,730.061)">
				<path id="path1108" class="st0" d="M160.8-103.5h16.7v18.6C171.8-90.7,166.2-97,160.8-103.5 M181-107h-27.3l2.2,2.8
					c7,8.8,14.4,17.1,22.2,24.7l2.9,2.9V-107z"/>
			</g>
			<g id="g1110" transform="translate(793.7959,729.876)">
				<path id="path1112" class="st1" d="M177.9-105.1h24.8v39.3h-9.1C188.1-70.3,183-75,177.9-80V-105.1z"/>
			</g>
			<g id="g1114" transform="translate(793.9814,730.061)">
				<path id="path1116" class="st0" d="M179.4-103.5h21.3v35.8H194c-4.5-3.7-9.2-7.9-14.6-13.2V-103.5z M204.2-107H176v27.6l0.5,0.5
					c5.9,5.8,10.9,10.3,15.8,14.3l0.5,0.4h11.4V-107z"/>
			</g>
			<g id="g1118" transform="translate(796.4512,734.8457)">
				<path id="path1120" class="st1" d="M200-63.6c-3.1-2.3-6.1-4.7-9.1-7.1h9.1V-63.6z"/>
			</g>
			<g id="g1122" transform="translate(796.6367,733.896)">
				<path id="path1124" class="st0" d="M201.6-71.6h-15.6l3.7,3.1c3,2.4,6,4.8,9.1,7.2l2.8,2.1V-71.6z"/>
			</g>
			<g id="g1126" transform="translate(796.5312,734.9072)">
				<path id="path1128" class="st1" d="M200.7-63.1v-7.7h24.7v24C216.8-51.8,208.6-57.2,200.7-63.1"/>
			</g>
			<g id="g1130" transform="translate(796.7168,734.2666)">
				<path id="path1132" class="st0" d="M202.2-68.5h21.3v19.2c-7.7-4.6-14.7-9.2-21.3-14.1V-68.5z M227-71.9h-28.2v10.3l0.7,0.5
					c7.6,5.7,15.8,11.1,24.9,16.4l2.6,1.5V-71.9z"/>
			</g>
			<g id="g1134" transform="translate(801.9141,738.04)">
				<path id="path1136" class="st1" d="M245.6-37c-8.5-3.7-16.8-8-24.8-12.6V-74h24.8V-37z"/>
			</g>
			<g id="g1138" transform="translate(799.4434,734.2666)">
				<path id="path1140" class="st0" d="M225-68.5h21.3v32.6c-7.1-3.2-14.3-6.9-21.3-10.9V-68.5z M249.8-71.9h-28.3v27.1l0.9,0.5
					c8.2,4.7,16.6,9,25,12.6l2.4,1.1V-71.9z"/>
			</g>
			<g id="g1142" transform="translate(801.9492,734.0811)">
				<path id="path1144" class="st1" d="M245.8-70h24.8v39.3H251c-1.7-0.7-3.5-1.4-5.2-2.2V-70z"/>
			</g>
			<g id="g1146" transform="translate(802.1348,734.2666)">
				<path id="path1148" class="st0" d="M247.4-68.5h21.3v35.8h-17.5l-3.8-1.6V-68.5z M272.1-71.9h-28.2v40l6.9,2.8h21.3V-71.9z"/>
			</g>
			<g id="g1150" transform="translate(839.9922,716.6641)">
				<path id="path1152" class="st1" d="M562.9-215.2c-0.3,2.1-0.6,4.1-0.9,6.1h-23.9v-39.3l27.2-0.3L562.9-215.2z"/>
			</g>
			<g id="g1154" transform="translate(837.5146,713.2866)">
				<path id="path1156" class="st0" d="M542.3-243.3l23.7-0.2l-2.5,33.1c-0.2,1-0.3,2.1-0.5,3.1h-20.8V-243.3z M569.5-246.9
					l-30.7,0.3v42.6h27l0.2-1.4c0.2-1.5,0.5-3,0.7-4.5l0.2-1.6L569.5-246.9z"/>
			</g>
			<g id="g1158" transform="translate(837.334,708.9395)">
				<path id="path1160" class="st1" d="M540.7-279.5v-39.3h15.5c4,12.7,7.1,25.8,9,39.3H540.7z"/>
			</g>
			<g id="g1162" transform="translate(837.5195,704.9102)">
				<path id="path1164" class="st0" d="M542.3-313.1h12.5c3.6,11.7,6.4,23.8,8.3,35.9h-20.8V-313.1z M557.3-316.6h-18.5v42.8h28.2
					l-0.3-2c-1.9-13.4-5-26.7-9.1-39.6L557.3-316.6z"/>
			</g>
			<g id="g1166" transform="translate(837.2979,704.7642)">
				<path id="path1168" class="st1" d="M540.4-314.3h-24.7v-39.3h24.5c0.1,0.2,0.2,0.4,0.3,0.5V-314.3z"/>
			</g>
			<path id="path1170" class="st0" d="M1354.7,352.9h21.3v35.8h-21.3V352.9z M1378.5,349.4h-27.2v42.7h28.2l-0.2-41.3L1378.5,349.4z
				"/>
			<g id="g1172" transform="translate(788.4209,700.5562)">
				<path id="path1174" class="st1" d="M133.1-349.4h24.3v39.3h-24.8v-38.4C132.8-348.8,132.9-349.1,133.1-349.4"/>
			</g>
			<path id="path1176" class="st0" d="M922.7,352.9h21.4v35.8h-21.4V352.9z M947.6,349.4h-27.1l-0.5,0.9c-0.1,0.3-0.2,0.4-0.4,0.6
				l-0.4,0.5v40.7h28.3V349.4z"/>
			<g id="g1178" transform="translate(785.7441,708.9395)">
				<path id="path1180" class="st1" d="M110.8-279.5h23.8v39.2l-26.2-0.1l1.4-30.6C110.1-273.8,110.4-276.7,110.8-279.5"/>
			</g>
			<g id="g1182" transform="translate(785.9072,709.125)">
				<path id="path1184" class="st0" d="M112.2-278h20.6v35.8l-22.6,0l1.6-31.5C111.8-275.2,112-276.6,112.2-278 M136.2-281.5h-27.1
					l-0.2,1.5c-0.3,1.9-0.5,3.9-0.7,5.8l-0.3,2.9l-1.4,32.5l29.7,0V-281.5z"/>
			</g>
			<g id="g1186" transform="translate(842.8408,683.4946)">
				<path id="path1188" class="st2" d="M1.8-121c-6-13.4-13.4-22.3-17.6-24.1L-52-161v-11.3l13.5-0.3c6,0,8.5,0.3,8.5-6.8v-74.7
					c0-22.7,12.4-39.3,44.3-40.1c24-0.7,38.5,10,48.8,19.9l-2.8,9.6c-4.3-2.9-7.7-5.4-13.5-5.4c-27.2,0-26.5,21.3-26.5,40v50.6
					c0,7.4,0.6,7.4,5.6,7.4h38.2v18.4l-38.6-0.4c-4.9,0-4.6,1.1-4.6,7.4l0.4,25.1L1.8-121z M250-148.6c-3.5,0-9.6-6.4-16.7-9.1
					c-8.5-3.6-25.5-3.2-32.5-5v-12l18.4-3.5v-23.4l-0.4-52.7c0-21.9-5.6-33.6-23.4-34.6l0.4-3.6c29.7,0.3,59.8,0,88.8,0.7l0.3,1.8
					c-13.4,0-23.7,14.1-23.7,31.8v59.2c0,14.5,17.7,23.7,29.8,22.7c18.7-1.8,29-13.8,29-24.4v-58.1c0-17.7-5.3-28.7-19.1-29.7v-3.3
					h81.4v2.5c-12.1,1.5-20.5,12.5-20.5,29v61c0,13.1,11.3,21.9,31.5,22.2c17.7,0.4,28.3-12.8,28.3-25.2v-55.2
					c0-18.8-5.7-30.4-19.8-31.9v-2.5c29.7-0.3,54.1-0.3,83.5,0v1.8c-15.5,0-20.8,10.2-20.8,31.8v60.9c0,20.2-11,44.3-41.8,44.3
					c-20.9,0-36.2-10.2-44.9-13.2c-6-2.4-10.3-5.3-11.7-5.3c-2.8,0-5.9,1.8-9.9,6c-7.4,7.8-20.9,12.4-35.1,12.4
					c-18.1,0-36.1-10.2-44.6-13.2c-1-0.3-7.3-3.5-8.1-3.5c-1.4,0-7.1,0-7.1,0.7c0,17,1.1,8.5,0.4,20.6L250-148.6z M132.3-150.7
					c-28.6-0.4-57.6-15.9-57.6-41.8c0-19.9,28.7-33.7,51.4-42.9c12.4-5.3,34.3-13.1,34.3-25.2c0-11.6-20.6-14.8-32.2-14.8
					c-19.8,0-41.8,26.6-41.8,26.6h-13l7.1-39.7c2.4,2.2,11.3,1.9,13.1,1.1c6.4-2.4,29.4-6,45.6-4.9c31.2,1.5,61.2,8.2,61.2,38.3
					c0,21.9-24,35.7-49.5,46.7c-16.4,6.7-40,16.6-40,24.5c0,9.2,18,26.9,35.4,12.7l30.1-25.2l13.8,2.9l-7.7,37.4
					c-7.1-0.3-12.1-0.7-38,3.6C140.5-150.8,136.4-150.6,132.3-150.7L132.3-150.7z M568.4-151.8c-52.4,0-92.4-27.3-92.4-74.8
					c0-40,36.5-68.3,85.3-68.3c37.2,0,68,26.9,76.8,43.9c0,5.2-5.3,7.5-10.2,7.5c-8.5-13.1-32.6-23.1-42.5-22.7
					c-59.1,2.1-68.7,25.8-69.4,50.6c-1.1,26.9,28,50.3,52.8,48.5c14.4-1,19.5-24.7,32.1-33.2c4-2.2,13.2-1.8,19.2-0.7
					c4.6,0.7,16.9,3.5,16.9,14.2c0,8.8-11,18.8-21.6,25.1C604.9-156.8,581.2-151.8,568.4-151.8L568.4-151.8z M586.6-481.1
					l-565.1-0.3v-21.3l565.1,0.4v10.7V-481.1z"/>
			</g>
			<g id="g1190" transform="translate(840.8906,719.9004)">
			</g>
			<g id="g1194" transform="translate(803.4297,708.8999)">
			</g>
			<g id="g1198" transform="translate(794.8984,704.8398)">
			</g>
			<g id="g1202" transform="translate(786.8564,717.7349)">
			</g>
		</g>
	</g>
</g>
</svg>
